<svg width="48" height="47" viewBox="0 0 48 47" fill="none" xmlns="http://www.w3.org/2000/svg">
<path d="M24 0.0727539C11.2752 0.0727539 0.959961 10.4186 0.959961 23.1811C0.959961 35.9437 11.2752 46.2895 24 46.2895C36.7248 46.2895 47.04 35.9437 47.04 23.1811C47.04 10.4186 36.7248 0.0727539 24 0.0727539ZM18.36 32.7591H13.6944V17.7001H18.36V32.7591ZM15.9984 15.8514C14.5248 15.8514 13.572 14.8043 13.572 13.5093C13.572 12.1878 14.5536 11.172 16.0584 11.172C17.5632 11.172 18.4848 12.1878 18.5136 13.5093C18.5136 14.8043 17.5632 15.8514 15.9984 15.8514ZM35.4 32.7591H30.7344V24.4136C30.7344 22.471 30.0576 21.1519 28.3704 21.1519C27.0816 21.1519 26.316 22.045 25.9776 22.9043C25.8528 23.21 25.8216 23.6433 25.8216 24.0742V32.7567H21.1536V22.5023C21.1536 20.6224 21.0936 19.0505 21.0312 17.6977H25.0848L25.2984 19.7895H25.392C26.0064 18.8074 27.5112 17.3583 30.0288 17.3583C33.0984 17.3583 35.4 19.4212 35.4 23.8551V32.7591Z" fill="#4CB0E9"/>
</svg>
