<svg width="24" height="18" viewBox="0 0 24 18" fill="none" xmlns="http://www.w3.org/2000/svg">
<path d="M0.69977 17.3015L0.698537 17.3002C0.566931 17.1691 0.5 17.0138 0.5 16.8C0.5 16.5862 0.566931 16.4309 0.698541 16.2998L0.699768 16.2985C0.830918 16.1669 0.9862 16.1 1.2 16.1H22.8C23.0138 16.1 23.1691 16.1669 23.3002 16.2985L23.3015 16.2998C23.4331 16.4309 23.5 16.5862 23.5 16.8C23.5 17.0138 23.4331 17.1691 23.3015 17.3002L23.3002 17.3015C23.1691 17.4331 23.0138 17.5 22.8 17.5H1.2C0.9862 17.5 0.830918 17.4331 0.69977 17.3015ZM22.3 13.2V13.9H1.7V13.2C1.7 10.7513 2.44795 8.60209 3.9458 6.73264L3.94588 6.73254C5.44306 4.86297 7.35642 3.6853 9.70341 3.18919L10.1 3.10536V2.7V2.4C10.1 1.87381 10.2817 1.43601 10.6589 1.05945L10.6595 1.05885C11.036 0.681655 11.4738 0.5 12 0.5C12.5262 0.5 12.9646 0.681683 13.342 1.05915C13.7185 1.43564 13.9 1.87354 13.9 2.4V2.7V3.10603L14.2974 3.18936C16.6648 3.68576 18.5822 4.86365 20.0688 6.73137C21.5567 8.60079 22.3 10.7504 22.3 13.2ZM3.16512 11.9286L3.08271 12.5H3.66H20.34H20.9118L20.8355 11.9333C20.5393 9.7329 19.5496 7.90149 17.8762 6.46105C16.2038 5.02151 14.2375 4.3 12 4.3C9.76251 4.3 7.80081 5.02155 6.13827 6.46203C4.47582 7.90176 3.48207 9.73112 3.16512 11.9286Z" fill="black" stroke="#263238"/>
</svg>