<svg width="24" height="19" viewBox="0 0 24 19" fill="none" xmlns="http://www.w3.org/2000/svg">
<path d="M7.35714 16.6878C7.35714 16.574 7.4004 16.4696 7.47026 16.3962C7.53933 16.3237 7.62766 16.2878 7.71429 16.2878H23.1429C23.2295 16.2878 23.3178 16.3237 23.3869 16.3962C23.4567 16.4696 23.5 16.574 23.5 16.6878C23.5 16.8015 23.4567 16.906 23.3869 16.9794C23.3178 17.0519 23.2295 17.0878 23.1429 17.0878H7.71429C7.62766 17.0878 7.53933 17.0519 7.47026 16.9794C7.4004 16.906 7.35714 16.8015 7.35714 16.6878ZM7.35714 9.48779C7.35714 9.37405 7.4004 9.26958 7.47026 9.19622C7.53933 9.1237 7.62766 9.08779 7.71429 9.08779H23.1429C23.2295 9.08779 23.3178 9.1237 23.3869 9.19623C23.4567 9.26958 23.5 9.37405 23.5 9.48779C23.5 9.60154 23.4567 9.70601 23.3869 9.77936C23.3178 9.85188 23.2295 9.88779 23.1429 9.88779H7.71429C7.62766 9.88779 7.53933 9.85188 7.47026 9.77936C7.4004 9.70601 7.35714 9.60154 7.35714 9.48779ZM7.35714 2.28779C7.35714 2.17405 7.4004 2.06958 7.47026 1.99622C7.53933 1.9237 7.62766 1.88779 7.71429 1.88779H23.1429C23.2295 1.88779 23.3178 1.9237 23.3869 1.99622C23.4567 2.06958 23.5 2.17405 23.5 2.28779C23.5 2.40154 23.4567 2.50601 23.3869 2.57936C23.3178 2.65188 23.2295 2.68779 23.1429 2.68779H7.71429C7.62766 2.68779 7.53933 2.65188 7.47026 2.57936C7.4004 2.50601 7.35714 2.40154 7.35714 2.28779ZM2.5644 3.21576C2.33458 3.45706 2.02824 3.58779 1.71429 3.58779C1.40033 3.58779 1.09399 3.45706 0.864172 3.21576C0.633567 2.97362 0.5 2.64023 0.5 2.28779C0.5 1.93535 0.633567 1.60196 0.864172 1.35983C1.09399 1.11852 1.40033 0.987793 1.71429 0.987793C2.02824 0.987793 2.33459 1.11852 2.5644 1.35983C2.795 1.60196 2.92857 1.93535 2.92857 2.28779C2.92857 2.64023 2.795 2.97362 2.5644 3.21576ZM2.5644 10.4158C2.33459 10.6571 2.02824 10.7878 1.71429 10.7878C1.40033 10.7878 1.09399 10.6571 0.864172 10.4158C0.633567 10.1736 0.5 9.84023 0.5 9.48779C0.5 9.13535 0.633567 8.80196 0.864172 8.55983C1.09399 8.31852 1.40033 8.18779 1.71429 8.18779C2.02824 8.18779 2.33458 8.31852 2.5644 8.55983C2.795 8.80196 2.92857 9.13535 2.92857 9.48779C2.92857 9.84023 2.795 10.1736 2.5644 10.4158ZM2.5644 17.6158C2.33458 17.8571 2.02824 17.9878 1.71429 17.9878C1.40033 17.9878 1.09399 17.8571 0.864172 17.6158C0.633567 17.3736 0.5 17.0402 0.5 16.6878C0.5 16.3354 0.633567 16.002 0.864172 15.7598C1.09399 15.5185 1.40033 15.3878 1.71429 15.3878C2.02824 15.3878 2.33458 15.5185 2.5644 15.7598C2.795 16.002 2.92857 16.3354 2.92857 16.6878C2.92857 17.0402 2.795 17.3736 2.5644 17.6158Z" fill="#162942" stroke="#162942"/>
</svg>
