<svg width="48" height="47" viewBox="0 0 48 47" fill="none" xmlns="http://www.w3.org/2000/svg">
<path d="M31.2 23.1841C31.2 25.0993 30.4414 26.9361 29.0911 28.2904C27.7409 29.6446 25.9095 30.4054 24 30.4054C22.0904 30.4054 20.2591 29.6446 18.9088 28.2904C17.5585 26.9361 16.8 25.0993 16.8 23.1841C16.8 22.7725 16.8432 22.3705 16.9176 21.9805H14.4V31.6018C14.4 32.271 14.94 32.8126 15.6072 32.8126H32.3952C32.7149 32.8119 33.0214 32.6841 33.2472 32.4571C33.4731 32.2301 33.6 31.9225 33.6 31.6018V21.9805H31.0824C31.1568 22.3705 31.2 22.7725 31.2 23.1841ZM24 27.9983C24.6305 27.9982 25.2548 27.8735 25.8372 27.6313C26.4197 27.3892 26.9489 27.0343 27.3946 26.5871C27.8403 26.1398 28.1938 25.6089 28.435 25.0246C28.6761 24.4403 28.8001 23.814 28.8 23.1817C28.7998 22.5493 28.6755 21.9232 28.434 21.339C28.1926 20.7548 27.8388 20.224 27.3929 19.777C26.9469 19.33 26.4176 18.9754 25.835 18.7335C25.2524 18.4917 24.6281 18.3673 23.9976 18.3674C22.7242 18.3678 21.5031 18.8754 20.603 19.7787C19.7028 20.682 19.1972 21.9069 19.1976 23.1841C19.1979 24.4612 19.704 25.6859 20.6046 26.5888C21.5053 27.4916 22.7266 27.9986 24 27.9983ZM29.76 18.1291H32.6376C32.8287 18.1291 33.0121 18.0531 33.1475 17.9178C33.2829 17.7824 33.3593 17.5987 33.36 17.407V14.5209C33.36 14.3287 33.2839 14.1444 33.1484 14.0085C33.0129 13.8726 32.8292 13.7963 32.6376 13.7963H29.76C29.5684 13.7963 29.3846 13.8726 29.2491 14.0085C29.1137 14.1444 29.0376 14.3287 29.0376 14.5209V17.407C29.04 17.8042 29.364 18.1291 29.76 18.1291ZM24 0.0757141C17.8894 0.0757141 12.0291 2.51034 7.70822 6.844C3.38738 11.1777 0.959961 17.0554 0.959961 23.1841C0.959961 29.3128 3.38738 35.1905 7.70822 39.5242C12.0291 43.8578 17.8894 46.2924 24 46.2924C27.0256 46.2924 30.0216 45.6947 32.817 44.5334C35.6123 43.3721 38.1522 41.67 40.2917 39.5242C42.4312 37.3784 44.1283 34.8309 45.2861 32.0273C46.444 29.2236 47.04 26.2187 47.04 23.1841C47.04 20.1494 46.444 17.1445 45.2861 14.3409C44.1283 11.5373 42.4312 8.98981 40.2917 6.844C38.1522 4.69819 35.6123 2.99604 32.817 1.83473C30.0216 0.67343 27.0256 0.0757141 24 0.0757141ZM36 32.5454C36 34.0161 34.8 35.2197 33.3336 35.2197H14.6664C13.2 35.2197 12 34.0161 12 32.5454V13.8228C12 12.352 13.2 11.1485 14.6664 11.1485H33.3336C34.8 11.1485 36 12.352 36 13.8228V32.5454Z" fill="#4CB0E9"/>
</svg>
