<svg width="48" height="47" viewBox="0 0 48 47" fill="none" xmlns="http://www.w3.org/2000/svg">
<path d="M24 0.112854C10.7464 0.112854 0 10.5206 0 23.3564C0 36.1923 10.7464 46.6 24 46.6C37.2536 46.6 48 36.1923 48 23.3564C48 10.5206 37.2536 0.112854 24 0.112854ZM35.5339 17.6337C35.55 17.8776 35.55 18.1318 35.55 18.3808C35.55 25.9973 29.5607 34.7707 18.6161 34.7707C15.2411 34.7707 12.1125 33.8212 9.47679 32.1869C9.95893 32.2388 10.4196 32.2595 10.9125 32.2595C13.6982 32.2595 16.2589 31.3464 18.3 29.8003C15.6857 29.7484 13.4893 28.0882 12.7393 25.8053C13.6554 25.935 14.4804 25.935 15.4232 25.7015C14.0771 25.4367 12.8672 24.7286 11.999 23.6977C11.1308 22.6668 10.658 21.3766 10.6607 20.0463V19.9737C11.4482 20.4043 12.375 20.6689 13.3446 20.7052C12.5295 20.1791 11.861 19.4663 11.3985 18.63C10.9359 17.7938 10.6935 16.8599 10.6929 15.9112C10.6929 14.8372 10.9821 13.8567 11.5018 13.0058C12.9959 14.7871 14.8603 16.244 16.9739 17.2818C19.0875 18.3196 21.4029 18.915 23.7696 19.0294C22.9286 15.1122 25.95 11.9422 29.5821 11.9422C31.2964 11.9422 32.8393 12.6374 33.9268 13.7581C35.2714 13.5142 36.5571 13.0265 37.7036 12.3728C37.2589 13.7062 36.3268 14.8321 35.0893 15.5428C36.2893 15.4183 37.4464 15.0967 38.5179 14.6453C37.7089 15.7971 36.6964 16.8192 35.5339 17.6337Z" fill="#4CB0E9"/>
</svg>
